<svg width="39" height="33" viewBox="0 0 39 33" fill="none" xmlns="http://www.w3.org/2000/svg">
<path d="M19.3115 17.9354L9.12769 13.8462V16.8005C9.12769 20.0261 13.5057 22.4582 19.3115 22.4582C25.1172 22.4582 29.4953 20.0261 29.4953 16.8005V13.8462L19.3115 17.9354Z" fill="white"/>
<path d="M38.623 23.5897C38.623 22.1165 37.6741 20.8722 36.3599 20.4036V8.68134L38.623 7.74828L19.3115 0L0 7.74828L19.3115 15.4966L34.0968 9.59004V20.4036C32.7826 20.8722 31.8338 22.1165 31.8338 23.5897C31.8338 24.9385 32.6304 26.0963 33.7725 26.6434L31.8924 32.284L34.0383 33L35.2284 29.4297L36.4184 33L38.5643 32.284L36.6842 26.6434C37.8264 26.0964 38.623 24.9386 38.623 23.5897Z" fill="white"/>
</svg>
